<svg height="75.669" viewBox="0 0 309.858 75.669" width="309.858" xmlns="http://www.w3.org/2000/svg"><g fill="#0a66c2"><path d="m1165.36 274.927a1.39 1.39 0 0 0 1.4-1.47c0-1.039-.629-1.541-1.919-1.541h-2.082v5.458h.784v-2.379h.964l.022.029 1.5 2.35h.839l-1.609-2.434zm-.907-.547h-.909v-1.845h1.152c.6 0 1.279.1 1.279.877 0 .9-.687.968-1.522.968" transform="translate(-859.851 -204.142)"/><path d="m203.8 92.5h11.576v42.163h21.434v10.682h-33.01z" transform="translate(-203.8 -81.396)"/><path d="m322.564 107.817h11.126v35.813h-11.126zm5.565-17.8a6.451 6.451 0 1 1 -6.452 6.451 6.451 6.451 0 0 1 6.452-6.451" transform="translate(-284.443 -79.698)"/><path d="m506.953 92.486h11.123v31.582l12.6-14.576h13.633l-14.593 16.579 14.288 19.263h-13.98l-11.805-17.7h-.146v17.7h-11.12z" transform="translate(-411.195 -81.389)"/><path d="m379.2 144.458h10.679v4.894h.152a11.682 11.682 0 0 1 10.529-5.785c11.277 0 13.352 7.42 13.352 17.057v19.638h-11.13v-17.409c0-4.156-.077-9.494-5.79-9.494-5.781 0-6.672 4.525-6.672 9.2v17.709h-11.12z" transform="translate(-323.793 -116.336)"/><path d="m643.458 157.747a6.667 6.667 0 0 0 -6.827-6.823c-4.89 0-7.564 3.337-7.859 6.823zm9.419 15.87a19.586 19.586 0 0 1 -15.207 7.125c-11.122 0-20.023-7.423-20.023-18.917s8.9-18.913 20.023-18.913c10.394 0 16.913 7.416 16.913 18.913v3.486h-25.81a8.307 8.307 0 0 0 8.38 6.973c3.638 0 6.082-1.855 7.936-4.377z" transform="translate(-486.925 -115.887)"/><path d="m764.581 118.155c-5.561 0-8.9 3.712-8.9 9.121s3.335 9.125 8.9 9.125 8.9-3.7 8.9-9.125-3.338-9.121-8.9-9.121m19.142 27.145h-10.238v-4.749h-.146a13.982 13.982 0 0 1 -11.056 5.639c-10.684 0-17.728-7.71-17.728-18.615 0-10.015 6.228-19.211 16.467-19.211 4.6 0 8.9 1.259 11.422 4.745h.146v-20.636h11.131z" transform="translate(-573.746 -81.38)"/><path d="m967.721 121.3h-11.121v-17.415c0-4.152-.074-9.5-5.784-9.5-5.79 0-6.678 4.525-6.678 9.2v17.715h-11.123v-35.813h10.675v4.894h.15a11.693 11.693 0 0 1 10.532-5.781c11.271 0 13.349 7.419 13.349 17.057zm-47.249-40.707a6.453 6.453 0 1 1 6.451-6.455 6.453 6.453 0 0 1 -6.451 6.455m5.562 40.707h-11.134v-35.813h11.132zm47.232-63.945h-63.952a5.477 5.477 0 0 0 -5.539 5.409v64.217a5.48 5.48 0 0 0 5.539 5.415h63.951a5.491 5.491 0 0 0 5.554-5.415v-64.217a5.488 5.488 0 0 0 -5.554-5.409" transform="translate(-682.673 -57.355)"/><path d="m1157.23 264.22a5.118 5.118 0 1 0 .1 0zm0 9.649a4.487 4.487 0 1 1 4.412-4.561v.076a4.391 4.391 0 0 1 -4.295 4.484h-.118" transform="translate(-852.539 -198.877)"/></g></svg>